<?xml version="1.0" encoding="UTF-8"?>
<svg xmlns="http://www.w3.org/2000/svg" viewBox="0 0 22.15 24">
    <g id="logo">
        <path
            d="m1.85,3.69c0-.5.07-.99.19-1.46C.79,2.86,0,4.14,0,5.54v12.92c0,1.4.79,2.68,2.04,3.3-.13-.47-.19-.96-.19-1.46V3.69Z"
            stroke-width="0" />
        <rect x="3.69" y="0" width="14.77" height="24" rx="3.69" ry="3.69" stroke-width="0" />
        <path
            d="m20.31,3.69c0-.5-.07-.99-.19-1.46,1.25.63,2.04,1.9,2.04,3.3v12.92c0,1.4-.79,2.68-2.04,3.3.13-.47.19-.96.19-1.46V3.69Z"
            stroke-width="0" />
    </g>
</svg>