<svg xmlns="http://www.w3.org/2000/svg" viewBox="0 0 85.16 24"><path d="M15 22h-6c-1.11 0-2.08-.6-2.6-1.5h-.4c-1.65 0-3-1.35-3-3V6.5c0-1.65 1.35-3 3-3h.4c.52-.9 1.49-1.5 2.6-1.5h6c1.11 0 2.08.6 2.6 1.5h.4c1.65 0 3 1.35 3 3v11c0 1.65-1.35 3-3 3h-.4c-.52.9-1.49 1.5-2.6 1.5ZM9 4c-.55 0-1 .45-1 1v14c0 .55.45 1 1 1h6c.55 0 1-.45 1-1V5c0-.55-.45-1-1-1h-6ZM18 18.5c.55 0 1-.45 1-1V6.5c0-.55-.45-1-1-1v13ZM6 5.5c-.55 0-1 .45-1 1v11c0 .55.45 1 1 1V5.5Z"/><path d="M25.26 16.9V7.1h4.17c.66 0 1.26.14 1.79.43.53.29.94.68 1.23 1.18s.44 1.06.44 1.67-.15 1.17-.44 1.67c-.29.5-.71.89-1.23 1.18-.53.29-1.12.43-1.79.43h-2.07v3.22h-2.1ZM29.36 11.79c.4 0 .74-.14 1.01-.41s.41-.6.41-.99-.14-.71-.41-.99c-.28-.27-.61-.41-1.01-.41h-2v2.8h2ZM38.08 10.33c.45.24.81.56 1.06.97.25.41.38.85.38 1.34v4.27h-1.79v-.94h-.04c-.17.27-.43.52-.8.74-.36.22-.78.34-1.25.34-.43 0-.81-.09-1.16-.27-.34-.18-.61-.42-.8-.72s-.29-.63-.29-.97c0-.58.18-1.05.55-1.43.36-.37.88-.62 1.55-.76l2.14-.41c-.02-.27-.14-.5-.36-.69-.22-.19-.5-.29-.83-.29-.58 0-1.11.27-1.58.8l-1.08-1.04c.3-.35.68-.66 1.16-.92.47-.26 1.01-.38 1.6-.38s1.09.12 1.55.36ZM37.21 15.09c.27-.29.41-.67.41-1.13v-.22l-1.47.29c-.26.05-.47.14-.62.29-.15.15-.22.31-.22.48 0 .21.08.39.23.52.15.14.37.2.64.2.41 0 .75-.14 1.03-.43ZM43.15 16.9h-1.89v-6.79h1.89v2.48h2.66v-2.48h1.89v6.79h-1.89v-2.56h-2.66v2.56ZM55.65 15.18h1.01v3.4h-1.89v-1.68h-4.06v1.68h-1.89v-3.4h.49c.26-.24.5-.66.71-1.25s.33-1.28.34-2.07l.04-1.75h5.25v5.07ZM53.76 15.18v-3.36h-1.62v.38c0 .7-.11 1.32-.29 1.85-.19.53-.39.91-.62 1.13h2.53ZM59.2 16.56c-.56-.32-.99-.75-1.32-1.29-.32-.54-.48-1.13-.48-1.78s.16-1.24.48-1.78c.32-.54.76-.97 1.32-1.28.55-.31 1.17-.47 1.84-.47s1.3.16 1.86.47c.55.31.99.74 1.31 1.28s.48 1.13.48 1.78-.16 1.24-.48 1.78c-.32.54-.75.97-1.31 1.29-.56.32-1.17.48-1.86.48s-1.29-.16-1.84-.48ZM62.26 14.77c.34-.34.5-.77.5-1.27s-.17-.93-.5-1.27-.74-.51-1.22-.51-.88.17-1.21.51-.5.76-.5 1.27.17.93.5 1.27c.33.35.74.52 1.21.52s.88-.17 1.22-.52ZM66.08 19.84v-9.73h1.89v.97h.04c.17-.28.44-.53.83-.76s.83-.34 1.34-.34c.55 0 1.06.15 1.53.45s.85.72 1.13 1.25c.28.54.42 1.15.42 1.83s-.14 1.29-.42 1.83c-.28.54-.66.96-1.13 1.26-.47.3-.98.46-1.53.46-.51 0-.96-.12-1.34-.34s-.66-.48-.83-.76h-.04v3.91h-1.89ZM70.49 15.05c.26-.16.46-.37.62-.64.15-.27.23-.57.23-.91s-.08-.63-.23-.9c-.15-.27-.36-.49-.62-.64-.26-.16-.54-.24-.83-.24s-.58.08-.83.24c-.26.16-.46.37-.62.64-.15.27-.23.57-.23.9s.08.64.23.91c.15.27.36.49.62.64.26.16.53.24.83.24s.58-.08.83-.24ZM76.56 16.9h-1.89v-6.79h1.62l2.11 2.63h.06l2.1-2.63h1.6v6.79h-1.89v-3.93h-.04l-1.81 2.25-1.82-2.25h-.04v3.93Z"/></svg>
