<svg xmlns="http://www.w3.org/2000/svg" viewBox="0 0 41.56 24"><path d="M15 22h-6c-1.11 0-2.08-.6-2.6-1.5h-.4c-1.65 0-3-1.35-3-3V6.5c0-1.65 1.35-3 3-3h.4c.52-.9 1.49-1.5 2.6-1.5h6c1.11 0 2.08.6 2.6 1.5h.4c1.65 0 3 1.35 3 3v11c0 1.65-1.35 3-3 3h-.4c-.52.9-1.49 1.5-2.6 1.5ZM9 4c-.55 0-1 .45-1 1v14c0 .55.45 1 1 1h6c.55 0 1-.45 1-1V5c0-.55-.45-1-1-1h-6ZM18 18.5c.55 0 1-.45 1-1V6.5c0-.55-.45-1-1-1v13ZM6 5.5c-.55 0-1 .45-1 1v11c0 .55.45 1 1 1V5.5Z"/><path d="M27.36 16.9h-2.1V7.1h2.1v9.8ZM29.88 16.9V7.1h3.47c.98 0 1.87.22 2.66.66.79.44 1.42 1.03 1.87 1.78.45.75.68 1.57.68 2.46s-.23 1.71-.68 2.46c-.45.75-1.08 1.35-1.87 1.78-.79.44-1.68.66-2.66.66h-3.47ZM33.35 15.01c.58 0 1.1-.13 1.57-.39.47-.26.84-.62 1.11-1.08.27-.46.4-.97.4-1.53s-.13-1.08-.4-1.54-.63-.82-1.1-1.08c-.47-.26-.99-.39-1.58-.39h-1.37v6.02h1.37Z"/></svg>
