<svg xmlns="http://www.w3.org/2000/svg" viewBox="0 0 63.95 15.94"><path d="M11.09 12.87h-2.28l-1.81-3.36h-1.9v3.36h-2.1V3.07h4.34c.65 0 1.24.14 1.76.42.52.28.92.67 1.21 1.16.29.49.43 1.04.43 1.64s-.16 1.19-.47 1.69c-.31.5-.74.89-1.28 1.16l2.1 3.72ZM5.1 4.96v2.66h2.17c.4 0 .73-.13.99-.38s.39-.57.39-.95-.13-.7-.39-.95c-.26-.25-.58-.38-.99-.38h-2.17ZM16.73 6.3c.45.24.81.56 1.06.97.25.41.38.85.38 1.34v4.27h-1.79v-.94h-.04c-.17.27-.43.52-.8.74-.36.22-.78.34-1.25.34-.43 0-.81-.09-1.16-.27-.34-.18-.61-.42-.8-.72s-.29-.63-.29-.97c0-.58.18-1.05.55-1.43.36-.37.88-.62 1.55-.76l2.14-.41c-.02-.27-.14-.5-.36-.69-.22-.19-.5-.29-.83-.29-.58 0-1.11.27-1.58.8l-1.08-1.04c.3-.35.68-.66 1.16-.92.47-.26 1.01-.38 1.6-.38s1.09.12 1.55.36ZM15.86 11.06c.27-.29.41-.67.41-1.13v-.22l-1.47.29c-.26.05-.47.14-.62.29-.15.15-.22.31-.22.48 0 .21.08.39.23.52.15.14.37.2.64.2.41 0 .75-.14 1.03-.43ZM19.91 12.87v-6.79h1.89v.97h.04c.17-.28.43-.53.79-.76s.77-.34 1.24-.34c.49 0 .93.12 1.32.35.38.23.68.57.9 1 .22.43.33.95.33 1.55v4.03h-1.89v-3.78c0-.42-.12-.75-.35-1-.23-.25-.54-.37-.91-.37-.43 0-.78.15-1.06.44s-.41.67-.41 1.14v3.57h-1.89ZM29.3 12.56c-.47-.3-.85-.72-1.13-1.26-.28-.54-.42-1.15-.42-1.83s.14-1.29.42-1.83c.28-.54.66-.95 1.13-1.25.47-.3.98-.45 1.53-.45.51 0 .96.11 1.34.34s.66.48.83.76h.04v-3.98h1.89v9.8h-1.89v-.97h-.04c-.17.28-.44.53-.83.76s-.83.34-1.34.34c-.55 0-1.06-.15-1.53-.46ZM32.2 11.02c.26-.16.46-.37.62-.64.15-.27.23-.57.23-.91s-.08-.63-.23-.9c-.15-.27-.36-.49-.62-.64-.26-.16-.53-.24-.83-.24s-.58.08-.83.24c-.26.16-.46.37-.62.64-.15.27-.23.57-.23.9s.08.64.23.91c.15.27.36.49.62.64s.53.24.83.24.58-.08.83-.24ZM38.2 12.53c-.56-.32-.99-.75-1.32-1.29-.32-.54-.48-1.13-.48-1.78s.16-1.24.48-1.78c.32-.54.76-.97 1.32-1.28.55-.31 1.17-.47 1.84-.47s1.3.16 1.86.47c.55.31.99.74 1.31 1.28s.48 1.13.48 1.78-.16 1.24-.48 1.78c-.32.54-.75.97-1.31 1.29-.56.32-1.17.48-1.86.48s-1.29-.16-1.84-.48ZM41.26 10.74c.34-.34.5-.77.5-1.27s-.17-.93-.5-1.27-.74-.51-1.22-.51-.88.17-1.21.51-.5.76-.5 1.27.17.93.5 1.27c.33.35.74.52 1.21.52s.88-.17 1.22-.52ZM45.08 12.87v-6.79h1.89v.84h.04c.17-.25.42-.48.76-.68.34-.2.73-.3 1.15-.3h.32v2.03c-.22-.08-.43-.11-.63-.11-.49 0-.88.17-1.19.5-.31.33-.46.77-.46 1.32v3.19h-1.89ZM50.45 12.87v-6.79h1.89v.97h.04c.13-.28.36-.53.7-.76s.73-.34 1.19-.34.87.12 1.22.36c.34.24.59.5.73.79h.06c.16-.29.45-.55.86-.79.42-.24.89-.36 1.44-.36.44 0 .84.12 1.2.35.36.23.65.57.86 1.01.21.44.32.95.32 1.54v4.03h-1.89v-3.85c0-.41-.1-.73-.31-.96s-.48-.34-.8-.34c-.37 0-.68.13-.92.41-.24.27-.36.64-.36 1.11v3.64h-1.89v-3.85c0-.41-.1-.73-.31-.96s-.48-.34-.81-.34c-.38 0-.7.13-.94.41-.24.27-.36.64-.36 1.11v3.64h-1.89Z"/></svg>
