<?xml version="1.0" encoding="UTF-8"?>
<svg xmlns="http://www.w3.org/2000/svg" viewBox="0 0 126.91 24" fill="currentColor">
    <g id="logo">
        <path
            d="m1.85,3.69c0-.5.07-.99.19-1.46C.79,2.86,0,4.14,0,5.54v12.92c0,1.4.79,2.68,2.04,3.3-.13-.47-.19-.96-.19-1.46V3.69Z"
            stroke-width="0" />
        <rect x="3.69" y="0" width="14.77" height="24" rx="3.69" ry="3.69" stroke-width="0" />
        <path
            d="m20.31,3.69c0-.5-.07-.99-.19-1.46,1.25.63,2.04,1.9,2.04,3.3v12.92c0,1.4-.79,2.68-2.04,3.3.13-.47.19-.96.19-1.46V3.69Z"
            stroke-width="0" />
    </g>
    <g id="text">
        <path
            d="m31.17,17.81V6.17h3.22v3.31l-.45-.97c.35-.82.9-1.45,1.67-1.87.76-.43,1.7-.64,2.79-.64v3.14c-.13-.03-.26-.05-.38-.07-.12-.01-.24-.02-.36-.02-.95,0-1.71.27-2.27.8s-.84,1.36-.84,2.47v5.5h-3.38Z"
            stroke-width="0" />
        <path
            d="m44.09,17.98c-.89,0-1.67-.16-2.32-.47-.65-.31-1.15-.73-1.5-1.27-.35-.53-.53-1.13-.53-1.8s.17-1.28.51-1.81.88-.93,1.61-1.22c.74-.29,1.7-.43,2.9-.43h3.07v1.95h-2.73c-.79,0-1.34.13-1.63.39-.3.26-.44.58-.44.97,0,.43.17.78.51,1.03.34.25.8.38,1.37.38s1.09-.13,1.55-.39.78-.66.96-1.19l.52,1.58c-.25.72-.69,1.28-1.34,1.68s-1.49.6-2.51.6Zm3.55-.17v-2.27l-.22-.5v-4.07c0-.72-.22-1.28-.66-1.69-.44-.4-1.11-.61-2.02-.61-.62,0-1.23.1-1.83.29-.6.19-1.11.46-1.55.79l-1.19-2.36c.63-.46,1.4-.81,2.29-1.05s1.8-.36,2.73-.36c1.78,0,3.15.42,4.13,1.25s1.47,2.14,1.47,3.92v6.64h-3.16Z"
            stroke-width="0" />
        <path
            d="m60.93,5.99c.92,0,1.75.18,2.48.55.73.37,1.3.93,1.72,1.69.42.76.63,1.73.63,2.91v6.67h-3.38v-6.15c0-.94-.21-1.63-.62-2.08s-.99-.67-1.74-.67c-.53,0-1.01.12-1.44.35-.43.23-.76.57-1,1.02-.24.45-.36,1.04-.36,1.77v5.76h-3.38V6.17h3.22v3.22l-.61-.97c.42-.78,1.02-1.38,1.8-1.8.78-.42,1.67-.63,2.66-.63Z"
            stroke-width="0" />
        <path
            d="m73.78,17.98c-1.1,0-2.09-.25-2.96-.75-.88-.5-1.57-1.19-2.08-2.09-.5-.89-.76-1.95-.76-3.16s.25-2.26.76-3.16c.51-.89,1.2-1.59,2.08-2.09.88-.5,1.87-.75,2.96-.75.98,0,1.84.22,2.57.65.74.43,1.31,1.09,1.71,1.97.4.88.61,2.01.61,3.38s-.19,2.48-.58,3.38c-.39.89-.95,1.56-1.68,1.98-.73.43-1.61.64-2.63.64Zm.56-2.77c.56,0,1.07-.13,1.51-.38.45-.25.8-.62,1.07-1.11s.4-1.07.4-1.73-.13-1.25-.4-1.73-.62-.84-1.07-1.09c-.45-.25-.95-.38-1.51-.38s-1.05.13-1.49.38c-.45.25-.8.62-1.07,1.09s-.4,1.05-.4,1.73.13,1.24.4,1.73.62.86,1.07,1.11c.45.25.94.38,1.49.38Zm3.07,2.6v-2.38l.07-3.46-.22-3.44V1.75h3.38v16.06h-3.22Z"
            stroke-width="0" />
        <path
            d="m89.28,17.98c-1.23,0-2.32-.26-3.28-.78-.96-.52-1.71-1.23-2.26-2.13-.55-.9-.82-1.93-.82-3.08s.27-2.2.82-3.11c.55-.9,1.3-1.61,2.26-2.12.96-.51,2.05-.77,3.28-.77s2.35.26,3.31.77c.97.51,1.72,1.22,2.27,2.12.55.9.82,1.94.82,3.11s-.27,2.2-.82,3.09c-.55.89-1.31,1.6-2.27,2.12-.97.52-2.07.78-3.31.78Zm0-2.77c.58,0,1.09-.13,1.53-.38s.79-.62,1.06-1.11.4-1.07.4-1.73-.13-1.25-.4-1.73-.62-.84-1.06-1.09-.94-.38-1.5-.38-1.07.13-1.51.38c-.45.25-.8.62-1.07,1.09s-.4,1.05-.4,1.73.13,1.24.4,1.73.62.86,1.07,1.11c.45.25.94.38,1.49.38Z"
            stroke-width="0" />
        <path
            d="m97.94,17.81V6.17h3.22v3.31l-.45-.97c.35-.82.9-1.45,1.67-1.87.76-.43,1.7-.64,2.79-.64v3.14c-.13-.03-.26-.05-.38-.07-.12-.01-.24-.02-.36-.02-.95,0-1.71.27-2.27.8s-.84,1.36-.84,2.47v5.5h-3.38Z"
            stroke-width="0" />
        <path
            d="m122.17,5.99c.92,0,1.74.18,2.46.55s1.27.93,1.68,1.69.61,1.73.61,2.91v6.67h-3.38v-6.15c0-.94-.19-1.63-.57-2.08s-.92-.67-1.61-.67c-.5,0-.95.11-1.34.34-.39.22-.69.56-.9,1-.21.44-.31,1.01-.31,1.72v5.84h-3.38v-6.15c0-.94-.19-1.63-.57-2.08s-.93-.67-1.66-.67c-.49,0-.93.11-1.32.34-.39.22-.69.56-.91,1s-.32,1.01-.32,1.72v5.84h-3.38V6.17h3.22v3.16l-.61-.91c.39-.79.96-1.4,1.71-1.81.75-.41,1.59-.62,2.53-.62,1.07,0,2.01.27,2.81.81.81.54,1.34,1.37,1.6,2.48l-1.19-.32c.39-.89,1.01-1.61,1.86-2.15.85-.54,1.84-.81,2.96-.81Z"
            stroke-width="0" />
    </g>
</svg>