<?xml version="1.0" encoding="UTF-8"?>
<svg xmlns="http://www.w3.org/2000/svg" viewBox="0 0 132.98 24" fill="currentColor">
    <g class="logo">
        <path
            d="m1.85,3.69c0-.5.07-.99.19-1.46C.79,2.86,0,4.14,0,5.54v12.92c0,1.4.79,2.68,2.04,3.3-.13-.47-.19-.96-.19-1.46V3.69Z"
            stroke-width="0" />
        <rect x="3.69" y="0" width="14.77" height="24" rx="3.69" ry="3.69" stroke-width="0" />
        <path
            d="m20.31,3.69c0-.5-.07-.99-.19-1.46,1.25.63,2.04,1.9,2.04,3.3v12.92c0,1.4-.79,2.68-2.04,3.3.13-.47.19-.96.19-1.46V3.69Z"
            stroke-width="0" />
    </g>
    <g class="text">
        <path
            d="m31.04,22.01V6.17h3.22v2.38l-.06,3.46.22,3.44v6.56h-3.38Zm6.86-4.03c-.97,0-1.82-.22-2.55-.65-.74-.43-1.31-1.09-1.72-1.98-.41-.89-.62-2.01-.62-3.37s.19-2.5.58-3.38c.39-.88.96-1.54,1.7-1.97.74-.43,1.61-.65,2.61-.65,1.11,0,2.1.25,2.98.75.87.5,1.57,1.19,2.08,2.09.51.89.77,1.95.77,3.16s-.26,2.28-.77,3.17c-.51.89-1.2,1.58-2.08,2.08-.87.5-1.86.75-2.98.75Zm-.56-2.77c.56,0,1.06-.13,1.5-.39.44-.26.79-.63,1.06-1.11s.4-1.06.4-1.72-.13-1.25-.4-1.73-.62-.84-1.06-1.09-.94-.38-1.5-.38-1.07.13-1.51.38-.8.62-1.07,1.09-.4,1.05-.4,1.73.13,1.24.4,1.72.62.86,1.07,1.11c.45.26.95.39,1.51.39Z"
            stroke-width="0" />
        <path
            d="m49.5,17.98c-.89,0-1.67-.16-2.32-.47-.65-.31-1.15-.73-1.5-1.27-.35-.53-.53-1.13-.53-1.8s.17-1.28.51-1.81.88-.93,1.61-1.22c.74-.29,1.7-.43,2.9-.43h3.07v1.95h-2.73c-.79,0-1.34.13-1.63.39-.3.26-.44.58-.44.97,0,.43.17.78.51,1.03.34.25.8.38,1.37.38s1.09-.13,1.55-.39.78-.66.96-1.19l.52,1.58c-.25.72-.69,1.28-1.34,1.68s-1.49.6-2.51.6Zm3.55-.17v-2.27l-.22-.5v-4.07c0-.72-.22-1.28-.66-1.69-.44-.4-1.11-.61-2.02-.61-.62,0-1.23.1-1.83.29-.6.19-1.11.46-1.55.79l-1.19-2.36c.63-.46,1.4-.81,2.29-1.05s1.8-.36,2.73-.36c1.77,0,3.15.42,4.13,1.25.98.84,1.47,2.14,1.47,3.92v6.64h-3.16Z"
            stroke-width="0" />
        <path d="m59.16,17.81V6.17h3.35v4.52h5.06v-4.52h3.38v11.64h-3.38v-4.35h-5.06v4.35h-3.35Z" stroke-width="0" />
        <path
            d="m72.79,20.32v-5.28h14.46v5.28h-3.12v-2.51h-8.2v2.51h-3.14Zm9.41-4.03v-7.38h-3.81l-.07,1.54c-.03.61-.07,1.19-.11,1.75s-.13,1.07-.26,1.53c-.13.46-.31.84-.53,1.15s-.53.52-.92.64l-3.31-.48c.4,0,.74-.13,1.01-.38.27-.25.47-.61.61-1.06.14-.45.24-.97.31-1.56.07-.58.12-1.2.15-1.85l.15-4.03h10.15v10.13h-3.38Z"
            stroke-width="0" />
        <path
            d="m94.82,17.98c-1.23,0-2.32-.26-3.28-.78-.96-.52-1.71-1.23-2.26-2.13s-.82-1.93-.82-3.08.27-2.2.82-3.11c.55-.9,1.3-1.61,2.26-2.12.96-.51,2.05-.77,3.28-.77s2.34.26,3.31.77c.97.51,1.72,1.22,2.27,2.12.55.9.82,1.94.82,3.11s-.27,2.2-.82,3.09c-.55.89-1.31,1.6-2.27,2.12-.97.52-2.07.78-3.31.78Zm0-2.77c.58,0,1.08-.13,1.53-.38s.79-.62,1.06-1.11c.27-.49.4-1.07.4-1.73s-.13-1.25-.4-1.73c-.27-.48-.62-.84-1.06-1.09s-.94-.38-1.5-.38-1.07.13-1.51.38-.8.62-1.07,1.09c-.27.48-.4,1.05-.4,1.73s.13,1.24.4,1.73c.27.49.62.86,1.07,1.11s.94.38,1.49.38Z"
            stroke-width="0" />
        <path
            d="m103.52,22.01V6.17h3.22v2.38l-.06,3.46.22,3.44v6.56h-3.38Zm6.86-4.03c-.97,0-1.82-.22-2.55-.65-.74-.43-1.31-1.09-1.72-1.98-.41-.89-.62-2.01-.62-3.37s.19-2.5.58-3.38c.39-.88.96-1.54,1.7-1.97.74-.43,1.61-.65,2.61-.65,1.11,0,2.1.25,2.98.75.87.5,1.57,1.19,2.08,2.09.51.89.77,1.95.77,3.16s-.26,2.28-.77,3.17c-.51.89-1.2,1.58-2.08,2.08-.87.5-1.86.75-2.98.75Zm-.56-2.77c.56,0,1.06-.13,1.5-.39.44-.26.79-.63,1.06-1.11s.4-1.06.4-1.72-.13-1.25-.4-1.73-.62-.84-1.06-1.09-.94-.38-1.5-.38-1.07.13-1.51.38-.8.62-1.07,1.09-.4,1.05-.4,1.73.13,1.24.4,1.72.62.86,1.07,1.11c.45.26.95.39,1.51.39Z"
            stroke-width="0" />
        <path
            d="m118.56,17.81V6.17h3.55l4.37,7.96h-1.41l4.7-7.96h3.18l.02,11.64h-3.05l-.02-8.18.56.37-4,6.69h-1.47l-3.98-6.95.58-.15v8.22h-3.03Z"
            stroke-width="0" />
    </g>
</svg>